PathFileType	4	(X/Y/Z)	D:\TRACE\spot_10-12-23\spot_arm_body_motion_1_2-platform.trc
DataRate	CameraRate	NumFrames	NumMarkers	Units	OrigDataRate	OrigDataStartFrame	OrigNumFrames
100.00	100.00	      55	5	mm	100.00	876	      7000
Frame#	Time	Left_Front			Right_Front			Left_Aft			Right_Aft			Post			
		X1	Y1	Z1	X2	Y2	Z2	X3	Y3	Z3	X4	Y4	Z4	X5	Y5	Z5	

876	8.750	-733.57330	-5.21717	-654.82410	833.87268	-6.58283	-629.91998	-662.73932	21.94644	482.92010	747.37891	23.27744	583.89337	68.28564	719.83893	-982.20258	
877	8.760	-733.84009	-5.68435	-654.94720	833.67004	-6.90802	-629.94025	-662.99817	22.02983	482.89166	747.13159	23.54335	583.81085	67.96645	719.05597	-983.30298	
878	8.770	-734.12518	-6.13535	-655.04724	833.39606	-7.36716	-630.02509	-663.17340	22.11366	482.78067	746.93494	23.85093	583.67834	67.80509	718.36511	-983.78485	
879	8.780	-734.03223	-6.64893	-655.24084	833.14417	-7.66835	-630.13367	-663.34601	22.32560	482.72180	746.69092	24.09818	583.62512	67.55782	718.12158	-984.24060	
880	8.790	-734.49554	-6.75757	-655.11066	832.84955	-7.87318	-630.21344	-663.55017	22.62363	482.60333	746.52307	24.32771	583.53564	67.43180	717.85730	-984.42950	
881	8.800	-734.91254	-6.86524	-655.17340	832.45782	-8.08358	-630.23389	-663.94440	22.93335	482.58380	746.15234	24.64816	583.35114	66.66548	717.38110	-985.19098	
882	8.810	-735.53882	-7.25102	-655.34766	832.08923	-8.44953	-630.30316	-664.38898	23.07495	482.49597	745.76111	24.80012	583.21967	65.35326	717.26318	-985.56421	
883	8.820	-736.04510	-7.62613	-655.41656	831.66956	-8.86343	-630.30804	-664.84302	23.19108	482.36972	745.31079	24.97894	583.20477	65.79912	716.27014	-985.60254	
884	8.830	-735.95276	-8.15125	-655.63281	831.26678	-9.15638	-630.43866	-665.21466	23.40557	482.25534	744.87177	25.20052	583.09546	65.97455	715.93768	-985.32544	
885	8.840	-736.60852	-8.06766	-655.44751	830.87927	-9.43266	-630.49158	-665.48358	23.69837	482.14816	744.50043	25.55921	583.11786	65.55975	715.66760	-985.64301	
886	8.850	-737.02924	-8.42502	-655.53717	830.51770	-9.72261	-630.52576	-665.83765	24.01329	482.17200	744.22198	25.76917	583.06555	65.08721	715.12170	-985.88806	
887	8.860	-737.41656	-8.82030	-655.66431	830.14661	-10.07370	-630.60480	-666.29877	24.17283	482.08292	743.77295	26.03520	582.98151	64.51860	714.50494	-986.08740	
888	8.870	-737.64551	-9.29170	-655.95557	829.67181	-10.43720	-630.74261	-667.02692	24.59859	481.82507	743.23120	26.31015	582.95953	64.13649	714.12030	-986.28461	
889	8.880	-738.35248	-9.62716	-655.61798	829.13983	-10.72513	-630.82635	-667.43158	24.51903	481.85028	742.72992	26.27603	582.71570	63.81331	713.76135	-986.60614	
890	8.890	-738.71198	-9.61647	-655.83661	828.68439	-10.97180	-630.93640	-667.74548	24.72820	481.76685	742.37695	26.59202	582.62506	63.36591	713.21716	-987.18738	
891	8.900	-739.43109	-9.71600	-655.98743	828.19153	-11.19066	-630.92499	-668.17511	25.03465	481.65805	741.86292	26.98832	582.48370	62.85517	712.70703	-988.05609	
892	8.910	-740.12311	-9.95160	-656.09692	827.77539	-11.53706	-630.92462	-668.59210	25.16652	481.52710	741.53668	27.17212	582.26385	62.29763	712.20618	-988.99420	
893	8.920	-740.47681	-10.47271	-655.99945	827.24774	-11.90574	-631.09113	-669.20502	25.34659	481.49112	741.01416	27.31591	582.13739	62.25983	711.71716	-989.13861	
894	8.930	-740.86475	-10.94659	-656.09247	826.71802	-12.25732	-631.16528	-669.73889	25.50526	481.44025	740.46130	27.52112	582.06958	61.53169	711.29657	-989.73517	
895	8.940	-741.33893	-11.28210	-656.08362	826.18628	-12.47234	-631.20013	-670.15747	25.69547	481.45917	739.92096	27.73781	582.05725	60.16162	711.13507	-990.75781	
896	8.950	-741.85846	-11.46655	-656.09186	825.83240	-12.60238	-631.21472	-670.40607	25.85616	481.29953	739.45978	27.93545	582.04211	60.47211	710.57330	-990.61316	
897	8.960	-742.33728	-11.62746	-656.10779	825.33826	-12.78646	-631.22974	-671.21600	26.02273	481.30667	738.94336	28.14395	581.93481	59.63976	710.23267	-991.46759	
898	8.970	-743.05713	-11.65207	-656.27570	824.62445	-13.06241	-631.34540	-672.03638	26.21346	481.25461	738.35242	28.30365	581.85974	59.13316	709.95660	-991.70428	
899	8.980	-743.58081	-11.89371	-656.44617	824.01996	-13.39538	-631.40393	-672.60675	26.31557	481.17123	737.61530	28.47869	581.81213	58.31072	709.61169	-992.05432	
900	8.990	-744.25946	-12.31646	-656.55707	823.40857	-13.65419	-631.43237	-673.04242	26.45904	481.15237	737.04218	28.63553	581.72852	58.13488	709.31842	-991.64880	
901	9.000	-744.78973	-12.44888	-656.51666	822.95300	-13.77984	-631.51196	-673.53058	26.61059	481.12054	736.54260	28.81756	581.69916	57.57462	708.94348	-991.70618	
902	9.010	-745.33551	-12.47090	-656.50262	822.32184	-13.92655	-631.56171	-674.25391	26.87742	480.99222	735.98181	29.04416	581.61621	56.97658	708.47125	-991.75690	
903	9.020	-745.78168	-12.80449	-656.54156	821.45300	-14.48229	-631.54999	-674.83087	27.00071	480.83734	735.37439	29.28282	581.53326	56.50298	708.23792	-991.75311	
904	9.030	-746.57178	-13.06836	-656.59930	820.77631	-14.83235	-631.64050	-675.40326	27.06438	480.79898	734.64117	29.45874	581.48688	55.69494	707.81958	-991.78619	
905	9.040	-747.55450	-13.17456	-656.77460	820.29828	-14.87591	-631.77313	-676.16150	27.22223	480.71704	734.08563	29.55306	581.41809	54.48909	707.41956	-992.35583	
906	9.050	-748.18585	-13.41955	-656.77600	819.61932	-15.10237	-631.79797	-677.20111	27.21483	480.68454	733.35059	29.75841	581.32825	53.84359	707.06964	-992.71515	
907	9.060	-748.72510	-13.81173	-656.83850	818.93231	-15.24462	-631.85565	-677.44531	27.58675	480.54846	732.60095	29.97305	581.27734	53.25742	706.82837	-993.12213	
908	9.070	-749.26813	-13.92229	-656.84692	818.06525	-14.82444	-632.03412	-677.97241	27.60906	480.50186	732.03949	30.06025	581.17590	52.94354	706.42230	-993.44330	
909	9.080	-749.80835	-13.91899	-656.89954	817.45581	-14.95811	-631.96356	-678.81647	27.77167	480.45020	731.46045	30.22601	581.12634	51.90133	706.19421	-994.02844	
910	9.090	-750.53064	-14.43524	-657.00793	816.89709	-15.78166	-631.88214	-679.64960	27.86747	480.33377	730.67523	30.36637	581.07013	51.35579	706.00275	-994.21570	
911	9.100	-751.33960	-14.90016	-657.12439	816.13812	-15.88090	-632.03558	-680.19965	27.97305	480.32132	729.86224	30.47320	580.95154	50.77336	705.73456	-994.69080	
912	9.110	-752.26263	-14.81825	-657.18677	815.53204	-16.09561	-632.19971	-680.97046	28.08501	480.22342	729.15778	30.72759	580.87512	50.13736	705.37488	-995.17352	
913	9.120	-752.76880	-14.95959	-657.15369	814.67963	-16.05280	-632.15582	-681.73004	28.23651	480.16095	728.50647	30.79563	580.88300	49.07817	705.13690	-995.94025	
914	9.130	-753.45203	-15.11750	-657.02118	813.92059	-16.24981	-632.19928	-682.31256	28.35650	480.25229	727.80988	30.84077	580.88477	48.44102	705.02234	-996.15393	
915	9.140	-754.16034	-15.30140	-657.17310	813.22382	-16.55919	-632.18994	-683.19043	28.50539	480.18640	726.98309	30.98657	580.90338	47.79761	704.83099	-996.25049	
916	9.150	-755.16296	-15.36401	-657.25922	812.38275	-16.43202	-632.15839	-684.38995	28.88637	479.85794	726.16669	31.19975	580.90692	46.71904	704.61078	-996.66321	
917	9.160	-755.90051	-15.62127	-657.48352	811.70557	-16.45266	-632.18201	-684.45447	28.32351	480.86182	725.35443	31.03356	580.79443	46.25971	704.54291	-996.33417	
918	9.170	-756.80701	-15.38335	-657.11493	810.92511	-16.68513	-632.26147	-685.23999	28.35881	480.65204	724.69800	31.10129	580.73749	45.24911	704.43860	-996.72559	
919	9.180	-757.32544	-15.50948	-657.19073	810.07446	-16.85545	-632.29504	-686.23444	28.40642	480.60825	723.90997	31.22985	580.73309	44.83261	704.37451	-996.16284	
920	9.190	-758.17444	-15.54508	-657.22516	809.26172	-17.10715	-632.30023	-686.82544	28.46302	480.67816	723.00049	31.35800	580.76544	44.18571	704.17865	-995.97052	
921	9.200	-759.24011	-15.65557	-657.40161	808.30310	-17.15429	-632.22601	-687.70593	28.59589	480.57187	722.19049	31.42704	580.67859	43.30466	703.98846	-995.82733	
922	9.210	-760.19067	-15.71006	-657.34375	807.36694	-17.12141	-632.43933	-688.74347	28.63639	480.43762	721.33887	31.38616	580.54852	42.42414	703.89380	-995.75336	
923	9.220	-760.86810	-15.77952	-657.33099	806.53149	-17.45632	-632.42871	-689.52277	28.74964	480.33984	720.40796	31.39170	580.48553	41.06694	703.87762	-995.99042	
924	9.230	-761.46387	-16.00269	-657.32214	805.91357	-17.42331	-632.52905	-690.16467	28.73915	480.23697	719.59479	31.61875	580.45496	40.65607	703.67755	-995.46112	
925	9.240	-762.40442	-16.03642	-657.39893	805.02838	-17.40594	-632.44281	-691.09686	28.93466	480.28558	718.94519	31.63653	580.51990	39.75300	703.49078	-995.50647	
926	9.250	-763.54858	-16.02629	-657.49347	804.16351	-17.44443	-632.46985	-691.78168	28.92417	480.29977	718.01788	31.78162	580.46527	38.83482	703.39838	-996.06775	
927	9.260	-764.35577	-15.95464	-657.41901	803.28424	-17.55731	-632.55615	-692.95184	28.94787	480.25058	717.15753	31.87043	580.38013	37.87543	703.27075	-996.60736	
928	9.270	-765.04810	-16.22820	-657.44415	802.47357	-17.76638	-632.61176	-693.79590	28.92614	480.21292	716.21075	31.77374	580.38550	37.57159	703.22058	-996.43866	
929	9.280	-765.87878	-16.26765	-657.47668	801.56390	-17.64649	-632.66248	-694.53046	28.91067	480.23160	715.34222	31.72232	580.41913	36.03989	703.25885	-997.12683	
930	9.290	-766.69238	-16.32457	-657.79034	800.75513	-17.33288	-632.60455	-695.56970	28.94942	480.16122	714.64655	31.78993	580.41180	35.25618	703.18103	-997.30939	
